<?xml version="1.0" standalone="no"?>
<!DOCTYPE svg PUBLIC "-//W3C//DTD SVG 20010904//EN"
 "http://www.w3.org/TR/2001/REC-SVG-20010904/DTD/svg10.dtd">
<svg version="1.0" xmlns="http://www.w3.org/2000/svg"
 width="16.000000pt" height="16.000000pt" viewBox="0 0 16.000000 16.000000"
 preserveAspectRatio="xMidYMid meet">
<metadata>
Created by potrace 1.11, written by Peter Selinger 2001-2013
</metadata>
<g transform="translate(0.000000,16.000000) scale(0.005333,-0.005333)"
fill="#000000" stroke="none">
<path d="M0 1500 l0 -1500 1500 0 1500 0 0 1500 0 1500 -1500 0 -1500 0 0
-1500z m1163 -434 c99 -23 163 -79 208 -180 15 -34 18 -51 10 -55 -6 -4 -64
-15 -128 -25 l-116 -17 -29 35 c-54 66 -175 71 -247 10 -45 -37 -66 -104 -65
-201 2 -173 93 -254 251 -223 85 16 113 34 113 75 l0 35 -85 0 -85 0 0 90 0
90 205 0 205 0 0 -179 0 -179 -66 -42 c-109 -69 -182 -92 -311 -98 -123 -5
-210 7 -280 40 -155 73 -246 274 -215 476 29 183 130 302 295 347 67 18 265
19 340 1z m939 3 c223 -48 343 -245 309 -507 -14 -114 -53 -193 -126 -261 -75
-68 -142 -92 -272 -99 -228 -11 -376 63 -449 222 -55 120 -55 311 0 431 46
100 142 179 255 211 58 16 214 17 283 3z"/>
<path d="M1907 866 c-50 -19 -62 -30 -89 -84 -19 -39 -23 -64 -23 -142 0 -81
4 -102 25 -145 32 -64 75 -90 150 -90 74 0 118 26 149 89 20 40 24 63 24 145
1 81 -3 104 -22 143 -38 79 -130 115 -214 84z"/>
</g>
</svg>
